<svg version="1.0" width="1140" height="528" viewBox="5.805 .494 779.099 386.135" xmlns="http://www.w3.org/2000/svg"><g fill="#ff6464"><path d="M25.47 2.766c-5.3 2-15.9 12.1-18.1 17.2-1.3 3-1.5 25.4-1.8 171.5-.3 192.3-1.2 173.3 9.3 184 10.1 10.2 1.6 9.5 110.4 9.5 108.7 0 100.3.7 110.6-9.5 10.5-10.5 9.5 8.1 9.5-182.5s1-172-9.5-182.5c-10.3-10.3-1.6-9.5-111-9.4-86.3 0-95.4.2-99.4 1.7zm199.4 13c2.2 1.5 4.5 3.8 5.1 5.1.7 1.2 1.7 2.8 2.3 3.4.8.8 1.1 46.6 1.1 168.4v167.3l-2.5 4c-1.4 2.2-4.3 5.1-6.5 6.5l-4 2.5h-95.9c-84 0-96-.2-97.1-1.5-.7-.8-1.8-1.5-2.4-1.5-.6 0-2.6-2.2-4.4-4.9l-3.2-5v-334.1l2.5-4c1.4-2.2 4.2-5.1 6.3-6.4l3.7-2.5h191l4 2.7z"/><path d="M45.735 25.707c-2 2.5-17.6 45.7-18.4 46.7-1.8 2.4-2 8.7-.3 10.4 1.8 1.8 7.3 1.5 9-.6.8-.9 2-3.6 2.8-6l1.3-4.2h18.7l1.7 3.7c3.6 8.5 3.4 8.3 7.3 8.3 2 0 4.1-.5 4.8-1.2 1.7-1.7 1.5-9.3-.3-10.8-.8-.7-16.5-42.2-16.5-43.1-.1-4.2-7.4-6.5-10.1-3.2zm5.7 23.1c.6.4 3.1 8.3 3.7 9 1.5 1.8-.8 3.2-5.3 3.2s-6.8-1.4-5.3-3.2c.6-.7 3.3-9.4 5.3-9.7.3 0 1 .3 1.6.7zM92 158.5c-1.4.8-3.1 1.4-3.8 1.5-1.5 0-6.9 3.6-9.9 6.7-1.2 1.3-3.3 4.6-4.7 7.4-3.8 7.5-3.4 17.1 1.1 28.4.8 2.1 5.7 9.6 8.8 13.5 8.6 11.1 36.3 34 41 34 2.5 0 14.6-8.3 24.4-16.7 9.7-8.4 18.88-18.288 19.544-20.49.069-.227 2.023-2.87 2.456-3.81.502-1.09 3.6-4.8 6.2-12 5.5-15.7-1.6-31.6-17.1-37.9-4.6-1.9-16.5-1.9-21.2 0-2.1.8-5.5 3-7.7 4.7-5 4-7.2 4-12.2 0-7.5-6-21-8.7-26.9-5.3zM176.039 304.453c-2.1 2.3-2.2 8.5-.2 10.2.8.7 16.5 42.2 16.5 43.1 0 2.3 3.3 4.9 6.2 4.9 2.6 0 5.8-2.7 5.8-5.1 0-.8 15.7-42.2 16.5-42.9 2.1-1.8 1.9-8.3-.3-10.3-1-1-3.3-1.7-5.1-1.7-2.5 0-3.4.6-4.2 2.7-.6 1.6-1.7 4.3-2.5 6l-1.4 3.3h-18.6l-2-5.8c-1.8-5.4-2.1-5.7-5.5-6-2.4-.2-4 .3-5.2 1.6zm27.2 22.1c1.1.7-2.8 11.2-4 11.6-2.7.9-5.6-8.6-6.2-9.3-1.5-1.8.8-3.2 5.3-3.2 1.9 0 4.1.4 4.9.9zM719.423 13.42c0 14.1-.793 22.596-1.28 27.515-.293 5.89-2.531 17.744-2.72 19.484-.174 1.607-1.014 6.261-1.9 10.3-.884 4.035-.206 1.882-1.9 11.7-.42 2.438-1.6 6.2-2.2 8.5-.6 2.4-1.4 6.5-1.9 9.3-1.2 6.9-10.213 35.207-9.953 35.335.992-2.25-1.494 3.147-2.047 4.765-.552 1.62-1.04 2.994-1.5 4.4-.46 1.407-2.06 5.42-2.8 6.8-.744 1.388.153-.036-2.645 6.167-2.02 4.477-1.915 4.91-3.52 8.24-1.604 3.331-2.135 5.194-2.935 6.994-.8 1.8-1.7 4-2.1 4.8-.3.8-2.1 4.2-4 7.5s-4.6 8.2-6 11c-1.4 2.7-3.1 5.9-3.8 7-3.6 5.8-24.1 36.8-25.1 37.8-.7.7-3.1 3.7-5.5 6.7-7.7 9.8-13.4 16-26.7 29.4-14.1 14.1-16.6 16.4-25.9 23.4-3.3 2.5-6.4 5-7 5.6-1.6 1.9-9.2 7.6-10 7.6-.4 0-2.4 1.4-4.5 3s-4.1 3-4.5 3c-.4 0-2.4 1.3-4.5 3-2.1 1.6-4 3-4.3 3-.3 0-2.5 1.2-4.9 2.7-6.4 4.1-7.8 5-13.3 7.8-2.7 1.4-7 3.7-9.4 5-2.4 1.4-.94.965-7.356 3.955s-7.233 2.713-8.633 3.513c-1.5.8-4.61 1.532-7.11 2.532-2.5.9-5.8 2.3-7.3 3.1-1.6.8-6.626 2.35-8.226 3.15-4.1 2-1.147.35-15.54 4.98-31.579 9.034-7.92 1.925-9.32 2.725-1.4.8-15.697 3.499-34.922 8.648-2.67.715-24.077 3.284-27.652 3.668-16.972 1.826-27.445.594-94.587 4.336l-63.454 3.892h74.8c77.3.1 107.883-3.187 124.2-4.6 4.694-.406 8.5-1.4 10.9-1.4 4.6 0 15.6-2.1 23.2-4.5 2.6-.8 10.418-2.185 11.618-2.885 1.2-.6 4.582-1.315 6.782-1.715 4.5-.8 9.7-2.5 13.8-4.5 1.6-.8 12.3-4.4 13.7-4.7 3.1-.6 8.4-2.5 13-4.5 1.9-.8 5.1-2.1 7-3 1.9-.8 4.2-1.9 5-2.4.8-.4 2.2-1.1 3-1.4.8-.3 2.2-1 3-1.5.8-.5 2.2-1.2 3-1.5 4.9-1.8 15.9-7.1 19.5-9.5 1.7-1 3.9-2.3 5-2.9 1.1-.6 3.4-1.9 5-3 1.7-1.1 3.9-2.4 5-3 1.1-.6 3.4-1.9 5-3 1.7-1.1 3.7-2.3 4.5-2.7 3.5-1.6 37.2-27.7 44.5-34.4 13.7-12.7 26.6-26 40.5-41.9 4.2-4.8 11-13.9 11-14.7 0-.4 1.6-2.5 3.5-4.6 1.9-2.1 5.542-8.028 6.93-9.982 1.386-1.955 7.58-12.039 10.57-16.717 2.212-3.461 4.7-7.3 6.6-10.2 2-2.9 4.7-7.7 6.1-10.8 1.4-3 2.9-6.2 3.4-7 .5-.8 1.2-2.2 1.5-3 .3-.8 1-2.2 1.5-3 .5-.8 1.2-2.2 1.5-3 .3-.8 1.9-4.2 3.4-7.5 5.2-11.3 2.91-7.219 6-15.2 4.533-11.71 7.147-16.94 9.4-25.7 2.253-8.76 5.5-19.4 5.6-20.9 1.945-6.75 2.7-9.2 3.1-11.7.4-2.5 1.2-6.3 1.8-8.5.6-2.2 1.8-15 2.6-18.2.8-3.1 1.9-20.3 2.4-23.3s1.2-11.2 1.6-18.3l.7-12.7h-48.2l-.1 11.7zM428.11 164.766c-13.629 13.313-26.55 26.235-28.772 28.78-2.321 2.84-4.34 4.308-4.845 3.819-.505-.49-.808-10.181-.808-21.635.202-21.44-.1-23.495-3.937-23.495-.908 0-2.423.783-3.331 1.762-1.515 1.566-1.616 4.797-1.212 28.585.303 21.538.707 27.118 1.817 27.9.909.588 12.114.98 30.084.98h28.67c4.054-1.133 4.214-7.023 0-6.853l-22.916.196c-14.032.098-23.017-.196-23.017-.783 0-.49 3.029-3.623 6.663-7.049 13.426-12.139 51.687-49.535 52.191-50.906.707-1.957-2.019-5.58-4.139-5.58-.908.098-12.82 10.965-26.449 24.278z"/><path d="M317.715 212.843c-23.553 3.923-47.454 21.493-59.841 44.18-5.932 10.917-5.932 11.429-5.932 31.557 0 19.958.174 20.811 5.932 32.07 4.187 8.358 9.42 15.01 18.667 23.369 12.562 11.429 12.736 11.77 12.736 20.128 0 13.988.175 13.988 44.14 13.988h37.858l3.489-5.458c2.094-3.242 3.49-8.7 3.49-12.794 0-6.482.697-7.847 7.501-12.794 10.817-7.846 18.668-18.763 26.344-35.992 1.552-3.585 2.762-16.79 2.762-16.79s-.545-21.354-2.936-26.538c-1.57-3.582-4.362-9.893-6.28-13.987-2.094-4.265-8.026-12.111-13.26-17.57-11.515-11.94-28.96-20.81-45.884-23.54-12.561-1.876-16.05-1.876-28.786.17zm37.335 14.499c3.663 1.535 7.85 3.411 9.246 4.264 1.396.853 4.187 2.218 6.281 3.07 6.106 2.56 19.365 16.377 23.378 24.223 14.48 28.487 7.502 60.556-17.62 79.661-10.643 8.018-11.69 9.723-12.388 21.664-.523 6.312-.872 6.823-6.106 7.335l-5.757.512v-12.794c0-12.452-.175-12.964-4.536-13.987-6.63-1.706-8.549 1.535-8.549 14.328v11.43h-12.212l-.873-12.794c-.697-10.747-1.395-12.794-4.187-13.306-5.234-1.023-7.153 2.73-7.153 14.67 0 11.259 0 11.43-4.885 11.941-7.502.853-9.944-2.217-9.944-12.623 0-8.017-.523-9.552-4.71-12.111-19.715-12.282-31.927-33.093-31.927-54.586 0-9.894 1.046-13.476 8.374-29.51 2.966-6.312 9.283-13.581 11.755-15.79 2.122-1.895 12.367-8.929 15.531-10.793 5.09-3 14.36-5.817 25.296-6.966 11.534-1.213 23.911-.815 30.986 2.162z"/><path d="M296.202 274.217c-2.35.613-6.66 3.679-9.795 7.153-4.7 5.11-5.484 7.766-5.484 17.168 0 10.22.587 12.059 7.051 18.803 6.66 6.745 8.228 7.563 17.63 7.358 9.403-.204 10.97-.817 16.651-7.97 16.846-20.03-.588-48.235-26.053-42.512zm15.867 18.19c2.742 2.657 4.897 5.927 4.897 7.153 0 3.066-9.01 12.263-12.145 12.263-4.505-.204-11.361-7.562-11.361-12.263 0-4.7 6.856-12.058 11.36-12.263 1.372 0 4.702 2.248 7.249 5.11zm40.049-15.671c-2.165.984-6.1 4.132-8.856 7.083-4.133 4.33-4.92 7.28-4.92 16.921 0 10.232.59 12.2 6.1 17.709 5.314 5.115 7.873 6.1 15.942 6.296 10.627.197 17.711-3.738 23.025-12.79 8.659-14.363-1.574-34.038-18.696-36.006-4.723-.59-10.43-.197-12.595.787zm15.547 16.134c6.494 5.116 6.494 9.641.197 15.544-4.92 4.526-5.314 4.526-10.43 1.574-7.282-4.329-8.266-12.79-1.968-17.708 5.707-4.329 5.904-4.329 12.201.59z"/><text style="white-space:pre;line-height:100%" transform="translate(-31234.919 16965.47) scale(4.93175)" x="6387.055" y="-3414.816" font-family="cursive" font-size="28" font-weight="700" font-style="italic">Double<tspan x="6387.055" dy="1em">​</tspan></text></g></svg>