<svg height="800" width="800" xmlns="http://www.w3.org/2000/svg" viewBox="0 0 512 512">
  <path
    d="M381.2 504H130.8c-14.458 0-26.179-11.721-26.179-26.179V34.179C104.621 19.721 116.342 8 130.8 8h250.4c14.458 0 26.179 11.721 26.179 26.179v443.642c0 14.458-11.721 26.179-26.179 26.179z"
    fill="#eff2fa" />
  <path
    d="M183.667 238.229c0-21.161 17.759-38.315 39.666-38.315 10.858 0 20.689 4.221 27.848 11.05 2.655 2.532 6.981 2.532 9.636 0 7.16-6.83 16.991-11.05 27.849-11.05 21.907 0 39.666 17.154 39.666 38.315 0 39.572-53.059 75.572-68.29 85.09a7.656 7.656 0 01-8.085 0c-15.23-9.519-68.29-45.518-68.29-85.09"
    fill="#ff6464" />
  <g fill="#ff6464">
    <path
      d="M376 0H136c-22.056 0-40 17.944-40 40v432c0 22.056 17.944 40 40 40h240c22.056 0 40-17.944 40-40V40c0-22.056-17.944-40-40-40zm24 472c0 13.233-10.766 24-24 24H136c-13.234 0-24-10.767-24-24V40c0-13.233 10.766-24 24-24h240c13.234 0 24 10.767 24 24v432z" />
  </g>
  <g fill="#2d2b29">
    <path
      d="M143.491 106.809L147.544 96h24.912l4.053 10.809a8.004 8.004 0 007.492 5.193 8 8 0 007.49-10.811l-24-64c-.03-.08-.068-.153-.101-.231-.054-.131-.108-.262-.169-.39a6.93 6.93 0 00-.182-.354c-.059-.109-.118-.22-.183-.327a7.739 7.739 0 00-.229-.357 7.835 7.835 0 00-.699-.895 8.758 8.758 0 00-.557-.559 8.318 8.318 0 00-1.253-.929 7.654 7.654 0 00-.342-.192 6.79 6.79 0 00-.34-.174c-.132-.063-.268-.119-.403-.175-.075-.031-.146-.068-.223-.097-.033-.012-.066-.02-.1-.032a7.422 7.422 0 00-.438-.139c-.108-.032-.216-.067-.325-.095-.14-.035-.282-.062-.423-.089-.118-.023-.235-.049-.353-.066-.131-.02-.265-.03-.397-.043-.128-.013-.256-.028-.384-.034-.125-.007-.252-.003-.378-.003-.135 0-.269-.003-.402.003-.122.005-.244.021-.365.033-.139.013-.278.023-.416.044-.114.017-.228.043-.342.065-.145.028-.29.055-.433.091-.108.027-.215.062-.322.094a6.782 6.782 0 00-.439.14c-.033.012-.067.02-.1.032-.078.029-.149.066-.225.098a7.497 7.497 0 00-.399.173 8.027 8.027 0 00-.346.177c-.113.061-.226.122-.336.188a9.003 9.003 0 00-.646.432 8.946 8.946 0 00-.607.498 8.083 8.083 0 00-.558.558 7.857 7.857 0 00-.24.279 7.6 7.6 0 00-.875 1.305 6.852 6.852 0 00-.351.743c-.032.078-.07.151-.1.231l-24 64a8 8 0 007.49 10.811 8.01 8.01 0 007.491-5.196zM153.544 80L160 62.784 166.456 80h-12.912zM378.809 400.509a8 8 0 00-10.3 4.682L364.456 416h-24.912l-4.053-10.809a8 8 0 00-14.982 5.618l24 64c.016.042.04.078.056.119a8.1 8.1 0 00.443.949c.018.032.033.067.051.099a8.1 8.1 0 00.594.882c.055.071.109.142.166.211.222.271.458.531.716.772.029.028.061.051.09.078.24.218.496.419.765.609.061.043.121.086.183.127.293.195.599.375.923.533.043.021.088.037.131.057.185.085.37.171.563.245.108.04.216.069.325.105.068.022.136.045.205.066.336.1.673.178 1.011.233.06.009.119.016.179.023.363.051.727.083 1.088.083H352c.361 0 .725-.033 1.088-.083.06-.008.119-.014.179-.023a8.107 8.107 0 001.215-.299c.108-.036.218-.065.326-.105.195-.073.381-.16.567-.246.042-.02.085-.035.126-.055.325-.159.632-.339.926-.535.061-.041.119-.083.179-.125.271-.191.529-.395.77-.614.028-.025.058-.047.086-.074.259-.241.495-.503.718-.774.056-.068.11-.139.164-.209.217-.283.419-.575.596-.883.018-.031.032-.066.05-.097.17-.307.315-.625.444-.95.016-.042.04-.077.056-.119l24-64a8 8 0 00-4.681-10.3zM358.456 432L352 449.216 345.544 432h12.912zM312 456H152V136a8 8 0 00-16 0v328a8 8 0 008 8h168a8 8 0 000-16zM200 56h160v320a8 8 0 0016 0V48a8 8 0 00-8-8H200a8 8 0 000 16z" />
  </g>
</svg>